<?xml version="1.0" standalone="no"?>
<!DOCTYPE svg PUBLIC "-//W3C//DTD SVG 20010904//EN"
 "http://www.w3.org/TR/2001/REC-SVG-20010904/DTD/svg10.dtd">
<svg version="1.0" xmlns="http://www.w3.org/2000/svg"
 width="1024.000000pt" height="1024.000000pt" viewBox="0 0 1024.000000 1024.000000"
 preserveAspectRatio="xMidYMid meet">
<metadata>
Created by potrace 1.14, written by Peter Selinger 2001-2017
</metadata>
<g transform="translate(0.000000,1024.000000) scale(0.100000,-0.100000)"
fill="#000000" stroke="none">
<path d="M2675 10009 c-65 -7 -148 -17 -202 -24 -30 -4 -104 -16 -125 -21 -10
-2 -28 -6 -40 -9 -13 -3 -34 -7 -48 -10 -14 -3 -65 -17 -115 -31 -49 -14 -103
-29 -120 -33 -16 -5 -59 -20 -94 -35 -36 -14 -68 -26 -73 -26 -18 0 -303 -137
-398 -192 -124 -70 -336 -220 -425 -300 -16 -14 -41 -36 -55 -48 -129 -111
-300 -299 -410 -450 -86 -117 -104 -145 -192 -297 -163 -284 -295 -657 -337
-958 -7 -44 -14 -96 -17 -115 -3 -19 -8 -64 -12 -100 -9 -86 -9 -4384 0 -4475
12 -117 38 -298 50 -340 5 -22 12 -48 14 -59 11 -59 50 -195 81 -286 90 -265
206 -494 373 -735 8 -12 24 -35 35 -51 11 -16 22 -31 25 -34 3 -3 27 -32 52
-65 112 -146 319 -348 489 -480 46 -36 89 -69 95 -74 59 -48 281 -178 415
-244 156 -76 433 -181 532 -201 12 -3 31 -7 42 -10 183 -42 212 -47 440 -73
88 -10 4823 -11 4925 -1 293 29 516 82 821 196 84 32 275 124 363 176 43 25
80 46 82 46 3 0 10 4 17 10 7 5 50 35 97 66 179 120 406 319 541 475 11 13 33
38 48 54 76 84 281 376 280 399 0 5 4 12 9 15 16 10 134 244 179 356 57 139
126 353 148 455 76 361 73 244 73 2645 0 1183 -4 2182 -8 2220 -17 144 -21
172 -31 240 -6 39 -18 99 -26 135 -8 36 -17 74 -19 84 -2 10 -8 33 -14 51 -6
18 -12 41 -14 52 -26 132 -225 590 -296 680 -11 14 -20 30 -20 35 0 5 -5 14
-10 21 -6 7 -29 41 -52 77 -23 36 -44 67 -48 70 -3 3 -20 25 -37 50 -17 25
-41 55 -52 67 -12 12 -21 25 -21 29 0 4 -17 25 -39 48 -21 22 -68 74 -105 113
-94 103 -223 221 -336 309 -220 172 -497 326 -760 424 -63 23 -124 46 -135 50
-66 27 -346 92 -447 104 -113 14 -144 19 -163 24 -30 10 -4849 11 -4930 1z"/>
</g>
</svg>
